HIERARCHY
ROOT root     
{
	OFFSET 0.0000 0.0000 0.0000
	CHANNELS 6 Xposition Yposition Zposition Zrotation Yrotation Xrotation
	JOINT pelvis   
	{
		OFFSET 0.0000 0.0000 0.0000
		CHANNELS 3 Zrotation Yrotation Xrotation
		JOINT thorax   
		{
			OFFSET 0.0000 23.0750 -5.0000
			CHANNELS 3 Zrotation Yrotation Xrotation
			JOINT rclavicle
			{
				OFFSET 0.0000 28.0009 0.0000
				CHANNELS 3 Zrotation Yrotation Xrotation
				JOINT rhumerus 
				{
					OFFSET -18.5725 5.5939 0.0000
					CHANNELS 3 Zrotation Yrotation Xrotation
					JOINT rradius  
					{
						OFFSET -24.8459 0.0000 0.0000
						CHANNELS 3 Zrotation Yrotation Xrotation
						JOINT rhand    
						{
							OFFSET -24.5477 0.0000 0.0000
							CHANNELS 3 Zrotation Yrotation Xrotation
							End Site
							{
								OFFSET -8.1826 0.0000 0.0000
							}
						}
					}
				}
			}
			JOINT lclavicle
			{
				OFFSET 0.0000 28.0009 0.0000
				CHANNELS 3 Zrotation Yrotation Xrotation
				JOINT lhumerus 
				{
					OFFSET 18.5725 5.5939 0.0000
					CHANNELS 3 Zrotation Yrotation Xrotation
					JOINT lradius  
					{
						OFFSET 24.8459 0.0000 0.0000
						CHANNELS 3 Zrotation Yrotation Xrotation
						JOINT lhand    
						{
							OFFSET 24.5477 0.0000 0.0000
							CHANNELS 3 Zrotation Yrotation Xrotation
							End Site
							{
								OFFSET 8.1826 0.0000 0.0000
							}
						}
					}
				}
			}
			JOINT head     
			{
				OFFSET 0.0000 35.2030 0.0000
				CHANNELS 3 Zrotation Yrotation Xrotation
				End Site
				{
					OFFSET 0.0000 11.7343 0.0000
				}
			}
		}
		JOINT rfemur   
		{
			OFFSET -8.2817 0.0000 0.0000
			CHANNELS 3 Zrotation Yrotation Xrotation
			JOINT rtibia   
			{
				OFFSET 0.0000 -43.3627 0.0000
				CHANNELS 3 Zrotation Yrotation Xrotation
				JOINT rfoot    
				{
					OFFSET 0.0000 -38.2947 0.0000
					CHANNELS 3 Zrotation Yrotation Xrotation
					JOINT rtoes    
					{
						OFFSET 0.0000 0.0000 16.6054
						CHANNELS 3 Zrotation Yrotation Xrotation
						End Site
						{
							OFFSET 0.0000 0.0000 5.5351
						}
					}
				}
			}
		}
		JOINT lfemur   
		{
			OFFSET 8.2817 0.0000 0.0000
			CHANNELS 3 Zrotation Yrotation Xrotation
			JOINT ltibia   
			{
				OFFSET 0.0000 -43.3627 0.0000
				CHANNELS 3 Zrotation Yrotation Xrotation
				JOINT lfoot    
				{
					OFFSET 0.0000 -38.2947 0.0000
					CHANNELS 3 Zrotation Yrotation Xrotation
					JOINT ltoes    
					{
						OFFSET 0.0000 0.0000 16.6054
						CHANNELS 3 Zrotation Yrotation Xrotation
						End Site
						{
							OFFSET 0.0000 0.0000 5.5351
						}
					}
				}
			}
		}
	}
}
MOTION
Frames: 14
Frame Time: .0333333
29.937 86.443 5.491 -1.5016 -83.2074 13.5295 0 -0 0 0.902126 -20.5695 -18.9761 15.881 -4.70852 2.9202e-05 52.7239 49.6532 -12.1291 180 48.5893 180 -21.5919 24.7604 -4.79353 -9.48299 6.23294 2.90838e-06 -48.4829 -56.6308 -11.825 -180 -46.7816 180 26.6643 -20.0065 -4.7872 3.90789 8.77678 10.6344 -1.64953 -5.02557 -8.23016 -0 -0 3.85895 0.862321 -11.8611 6.666 -2.27091 6.19757e-06 -34.6894 1.01266 10.9389 -11.1666 -0 -0 4.53165 3.46531e-06 4.3614 6.65716 0.506596 -2.8358e-06 -28.2717 
29.975 86.449 5.4677 -0.770615 -81.9775 12.9646 0 -0 0 0.641309 -20.64 -18.9247 15.4793 -4.65934 -2.34428e-07 51.9741 50.1359 -13.2255 -180 49.161 -180 -21.8715 24.9236 -4.89016 -9.50964 6.15246 5.21513e-06 -49.167 -56.8275 -11.0362 -180 -46.8574 180 26.6794 -20.0401 -4.79815 3.8356 8.4122 10.2564 -1.53589 -5.4264 -8.25566 -0 -0 3.89974 0.931278 -12.6501 6.50314 -2.40353 -2.0216e-05 -34.2548 1.10574 10.0157 -11.5292 -0 -0 4.54009 2.90508e-06 4.09186 6.84485 0.488503 4.01976e-06 -28.4199 
30.018 86.454 5.4439 -0.188332 -80.7555 12.5419 0 -0 0 0.35979 -20.6465 -18.8358 15.015 -4.58659 -3.04674e-05 51.1965 50.639 -14.3907 180 49.8703 180 -22.2093 25.1027 -5.00428 -9.57446 6.08577 -3.41235e-06 -49.8514 -57.0598 -10.2317 -180 -46.9539 180 26.6768 -20.0536 -4.80112 3.73898 8.02304 9.85667 -1.42744 -5.83331 -8.27527 -0 -0 3.92762 0.997119 -13.4198 6.34941 -2.52926 -2.36792e-06 -33.8146 1.19781 9.09373 -11.8651 -0 -0 4.50183 1.35524e-08 3.83234 7.05979 0.471708 6.76033e-06 -28.5604 
30.072 86.461 5.4164 0.262332 -79.5409 12.2641 0 -0 0 0.0799097 -20.5908 -18.7368 14.4869 -4.49337 -1.42884e-05 50.3889 51.1653 -15.6144 180 50.738 180 -22.6026 25.2734 -5.13075 -9.68431 6.03418 2.82555e-06 -50.5316 -57.3219 -9.40938 -180 -47.0688 180 26.6569 -20.058 -4.7983 3.61124 7.60702 9.44352 -1.31482 -6.23125 -8.31583 -0 -0 3.94693 1.06199 -14.1899 6.20638 -2.6535 -1.82748e-05 -33.3643 1.28998 8.18966 -12.2143 -0 -0 4.44689 4.25161e-07 3.56343 7.29173 0.452899 1.3845e-06 -28.6962 
30.131 86.469 5.3873 0.65565 -78.3451 12.0395 0 -0 0 -0.219015 -20.4622 -18.6027 13.9097 -4.37999 1.60225e-05 49.5257 51.7206 -16.9151 180 51.7847 180 -23.0347 25.4082 -5.26031 -9.83719 5.99684 -2.86873e-06 -51.2126 -57.6168 -8.56855 -180 -47.2031 180 26.6253 -20.0446 -4.78914 3.45471 7.15986 9.01661 -1.20794 -6.62821 -8.35563 -0 -0 3.95665 1.12341 -14.9407 6.07289 -2.77161 -4.10834e-06 -32.9112 1.37973 7.29605 -12.5452 -0 -0 4.35641 -6.69518e-07 3.3034 7.54716 0.434292 6.35364e-07 -28.8234 
30.199 86.477 5.3552 0.998854 -77.1689 11.8647 0 -0 0 -0.532057 -20.2568 -18.4362 13.2913 -4.24913 -1.46425e-05 48.5905 52.3042 -18.3019 180 53.0179 180 -23.4861 25.4854 -5.38294 -10.0327 5.97324 3.07303e-06 -51.8927 -57.9403 -7.7056 -180 -47.3513 180 26.5879 -20.0198 -4.77623 3.26633 6.67761 8.57726 -1.1052 -7.01743 -8.40284 -0 -0 3.95939 1.18215 -15.6747 5.94853 -2.88511 1.34246e-05 -32.4543 1.46643 6.42093 -12.8674 -0 -0 4.24321 -1.16245e-06 3.04757 7.82086 0.415095 -2.48377e-07 -28.943 
30.275 86.485 5.3201 1.30788 -76.025 11.7195 0 -0 0 -0.86038 -19.9697 -18.2348 12.6353 -4.10296 4.06329e-06 47.562 52.9126 -19.7962 180 54.4458 180 -23.9392 25.487 -5.49 -10.268 5.96163 3.24031e-06 -52.5801 -58.2886 -6.81868 -180 -47.5108 180 26.556 -19.9848 -4.76175 3.04384 6.15589 8.12269 -1.00824 -7.39608 -8.4558 -0 -0 3.95836 1.23873 -16.3894 5.83269 -2.9945 -1.40402e-05 -31.9972 1.54924 5.56741 -13.1802 -0 -0 4.11124 -7.51479e-06 2.79885 8.11066 0.395203 5.63584e-07 -29.0548 
30.358 86.494 5.2822 1.5948 -74.91 11.5907 0 -0 0 -1.20743 -19.5914 -17.9898 11.9485 -3.94421 -5.78383e-06 46.4113 53.5425 -21.4237 180 56.0645 180 -24.3726 25.4072 -5.57413 -10.5382 5.96017 -3.20765e-06 -53.2788 -58.6601 -5.90194 -180 -47.6747 180 26.5385 -19.939 -4.7474 2.78639 5.59066 7.64782 -0.919243 -7.76362 -8.51162 -0 -0 3.95562 1.29301 -17.0768 5.72369 -3.09856 -1.66693e-05 -31.5383 1.62612 4.74098 -13.4806 -0 -0 3.96499 1.63041e-06 2.55861 8.41327 0.374607 2.29366e-06 -29.1554 
30.451 86.503 5.2402 1.85434 -73.826 11.4884 0 -0 0 -1.56005 -19.1249 -17.7128 11.2236 -3.77636 -3.95461e-06 45.134 54.1792 -23.1933 -180 57.866 -180 -24.7783 25.2327 -5.62955 -10.8412 5.96856 -2.23206e-06 -53.9938 -59.0391 -4.95709 -180 -47.8397 180 26.5481 -19.891 -4.73751 2.48922 4.98002 7.14721 -0.835176 -8.11164 -8.58098 -0 -0 3.95996 1.34852 -17.7462 5.61972 -3.20169 8.25403e-06 -31.0838 1.69905 3.94456 -13.7804 -0 -0 3.81632 -6.30768e-07 2.32509 8.72439 0.352904 8.02256e-07 -29.2476 
30.55 86.513 5.1953 2.09734 -72.7822 11.3925 0 -0 0 -1.92479 -18.5626 -17.3886 10.4623 -3.60103 -6.08867e-06 43.7172 54.8111 -25.1255 180 59.8424 180 -25.1348 24.9895 -5.65621 -11.1716 5.98424 1.75252e-06 -54.735 -59.4261 -3.97734 -180 -47.9993 180 26.5918 -19.8347 -4.73187 2.15497 4.32186 6.61445 -0.760283 -8.44381 -8.65546 -0 -0 3.9715 1.40462 -18.3847 5.519 -3.30143 1.59546e-05 -30.632 1.76458 3.18358 -14.069 -0 -0 3.6641 -3.50521e-06 2.10139 9.04177 0.330407 1.91964e-06 -29.3283 
30.656 86.523 5.1481 2.32919 -71.7846 11.294 0 -0 0 -2.29791 -17.9037 -17.0207 9.65703 -3.42118 2.21118e-06 42.1668 55.4179 -27.2232 -180 61.9769 -180 -25.4387 24.7004 -5.65866 -11.5253 6.0056 6.80306e-06 -55.5079 -59.8147 -2.95831 -180 -48.1446 180 26.6679 -19.767 -4.7294 1.78538 3.6164 6.04453 -0.696387 -8.76154 -8.73267 -0 -0 3.99515 1.46292 -18.9878 5.41923 -3.39851 -6.57297e-06 -30.1839 1.82098 2.46022 -14.3426 -0 -0 3.51073 1.16143e-06 1.88867 9.36356 0.307397 6.4318e-07 -29.3941 
30.769 86.534 5.0982 2.54378 -70.8229 11.2052 0 -0 0 -2.66581 -17.1552 -16.6131 8.7927 -3.23904 -5.92822e-06 40.5241 55.9746 -29.4598 180 64.2504 180 -25.6882 24.3708 -5.63733 -11.905 6.03429 -2.55319e-05 -56.3049 -60.1909 -1.90826 -180 -48.2756 180 26.7869 -19.6941 -4.73341 1.38049 2.86689 5.43642 -0.640236 -9.06092 -8.82051 -0 -0 4.03846 1.52719 -19.5625 5.31825 -3.49684 2.43564e-05 -29.746 1.86997 1.77618 -14.61 -0 -0 3.36397 6.48368e-06 1.68415 9.68679 0.283396 2.42774e-07 -29.4486 
30.886 86.547 5.047 2.74922 -69.9056 11.1106 0 -0 0 -3.02904 -16.3165 -16.1686 7.86674 -3.05477 -2.47732e-06 38.8126 56.4654 -31.8229 180 66.664 180 -25.8858 24.0598 -5.6077 -12.308 6.06756 -2.21886e-05 -57.1365 -60.5551 -0.821951 -180 -48.3849 180 26.9361 -19.6053 -4.73893 0.948209 2.07669 4.79162 -0.595071 -9.34933 -8.91073 -0 -0 4.09936 1.59615 -20.0959 5.21596 -3.5942 -9.98574e-06 -29.3107 1.90806 1.13491 -14.862 -0 -0 3.22164 -3.63657e-06 1.48807 10.0107 0.258697 -2.04314e-06 -29.487 
31.007 86.561 4.995 2.94538 -69.0319 11.0114 0 -0 0 -3.3796 -15.3994 -15.6915 6.87168 -2.86818 1.5635e-06 37.0839 56.8765 -34.2695 -180 69.2177 -180 -26.0385 23.7972 -5.57855 -12.7375 6.10567 2.12414e-05 -57.9949 -60.897 0.293728 -180 -48.4716 180 27.1046 -19.4989 -4.74321 0.494897 1.25183 4.11785 -0.56007 -9.62865 -9.00421 -0 -0 4.17934 1.67109 -20.59 5.11228 -3.69145 -4.47125e-06 -28.8781 1.93466 0.537497 -15.0988 -0 -0 3.08573 1.03848e-07 1.29801 10.3341 0.232901 -1.20213e-06 -29.5096 
